<?xml version="1.0" encoding="UTF-8"?>
<svg width="256px" height="256px" viewBox="0 0 256 256" version="1.1" xmlns="http://www.w3.org/2000/svg" xmlns:xlink="http://www.w3.org/1999/xlink">
    <!-- Generator: Sketch 61 (89581) - https://sketch.com -->
    <title>featureIllustration-3</title>
    <desc>Created with Sketch.</desc>
    <defs>
        <linearGradient x1="100%" y1="5.77522676%" x2="0%" y2="94.2247732%" id="linearGradient-1">
            <stop stop-color="#72BDDA" offset="0%"></stop>
            <stop stop-color="#E36AE5" offset="20.6239443%"></stop>
            <stop stop-color="#697CB5" offset="52.7528505%"></stop>
            <stop stop-color="#37497C" offset="79.8168285%"></stop>
            <stop stop-color="#780071" offset="99.4906039%"></stop>
        </linearGradient>
        <path d="M115.5,49.5 C154.651698,49.5 186.5,75.3910653 186.5,107.5 C186.5,115.206427 184.66015,122.702478 181.136452,129.663595 C199.686119,136.312177 212.5,150.2514 212.5,166.5 C212.5,175.92483 208.161626,184.838268 200.360383,192.019348 C199.934599,192.411284 199.876505,193.311737 200.686437,194.877227 C201.956263,197.331629 205.010928,200.473306 210.092137,204.196008 C211.22112,205.023147 210.702456,206.808973 209.306037,206.902651 C201.889083,207.400215 196.559623,206.080733 192.321175,203.41033 C191.597061,202.954107 190.934885,202.479439 190.227829,201.925723 L188.779001,200.764436 L188.647153,200.663146 C188.479654,200.536333 188.344994,200.442108 188.239006,200.376031 L188.168,200.333 L187.762884,200.536488 C178.601073,205.050498 167.798467,207.5 156.5,207.5 C125.656988,207.5 100.5,189.266954 100.5,166.5 C100.5,165.733772 100.528495,164.972679 100.584742,164.217244 C91.65463,162.660482 83.2247431,159.709296 75.7075662,155.548434 L75.113,155.215 L75.1002664,155.221283 C74.9202092,155.318654 74.6646027,155.506785 74.3076782,155.810628 L73.9067404,156.16382 C73.5009722,156.528923 72.7558344,157.205329 72.3897341,157.530499 L72.2998259,157.609976 C71.4090735,158.39242 70.5761992,159.062087 69.6658085,159.705457 C64.3215582,163.482221 57.581682,165.353916 48.1756739,164.646147 C46.8268585,164.544654 46.2908421,162.850269 47.3358748,161.991485 C53.8728936,156.619509 57.8202351,152.065797 59.4890039,148.447861 C60.6481138,145.93488 60.5516568,144.257914 59.7859583,143.467332 C49.9505136,133.312259 44.5,120.751419 44.5,107.5 C44.5,75.3910653 76.3483016,49.5 115.5,49.5 Z M156.5,128.5 C127.143974,128.5 103.5,145.636458 103.5,166.5 C103.5,187.363542 127.143974,204.5 156.5,204.5 C167.596038,204.5 178.172605,202.043357 187.041911,197.542915 C188.210988,196.949705 189.133343,197.27341 190.43352,198.252862 L190.781473,198.523828 C191.130445,198.802956 191.839143,199.377129 192.077515,199.563804 C192.709555,200.058773 193.291075,200.475625 193.920366,200.872105 L194.222357,201.058411 C196.960416,202.712014 200.247401,203.738142 204.506468,203.960911 L204.942,203.98 L204.84457,203.899988 C197.383512,197.635658 195.318197,192.58321 198.328611,189.81211 C205.541284,183.17281 209.5,175.039403 209.5,166.5 C209.5,145.636458 185.856026,128.5 156.5,128.5 Z M115.5,52.5 C77.8841182,52.5 47.5,77.200758 47.5,107.5 C47.5,119.743543 52.4660242,131.385341 61.4936679,140.913318 L61.940921,141.380196 C65.5189773,145.074531 62.7187976,152.233125 52.6515329,161.369089 L52.179,161.793 L52.1970031,161.793842 C58.7494904,161.760422 63.6298817,160.199982 67.6211598,157.473184 L67.9344278,157.255494 C68.5868368,156.794439 69.1993174,156.31468 69.8364677,155.77382 L70.5090782,155.188024 C70.9992662,154.749555 71.9513109,153.883784 72.1751936,153.688284 C73.8652485,152.212489 74.9991714,151.699371 76.428472,152.512861 C83.793163,156.704493 92.1128174,159.67834 100.955264,161.238065 C104.478605,140.986806 128.074502,125.5 156.5,125.5 C164.20884,125.5 171.562479,126.639 178.256911,128.70311 L178.078249,129.047087 C181.641333,122.291688 183.5,115.001139 183.5,107.5 C183.5,77.200758 153.115882,52.5 115.5,52.5 Z" id="path-2"></path>
        <filter x="-1.2%" y="-1.3%" width="102.4%" height="102.5%" filterUnits="objectBoundingBox" id="filter-3">
            <feGaussianBlur stdDeviation="2" in="SourceAlpha" result="shadowBlurInner1"></feGaussianBlur>
            <feOffset dx="0" dy="0" in="shadowBlurInner1" result="shadowOffsetInner1"></feOffset>
            <feComposite in="shadowOffsetInner1" in2="SourceAlpha" operator="arithmetic" k2="-1" k3="1" result="shadowInnerInner1"></feComposite>
            <feColorMatrix values="0 0 0 0 1   0 0 0 0 1   0 0 0 0 1  0 0 0 0.239783654 0" type="matrix" in="shadowInnerInner1"></feColorMatrix>
        </filter>
    </defs>
    <g id="featureIllustration-3" stroke="none" stroke-width="1" fill="none" fill-rule="evenodd">
        <g id="Fill" fill-rule="nonzero">
            <use fill="url(#linearGradient-1)" xlink:href="#path-2"></use>
            <use fill="black" fill-opacity="1" filter="url(#filter-3)" xlink:href="#path-2"></use>
        </g>
    </g>
</svg>