<?xml version="1.0" encoding="UTF-8"?>
<svg width="256px" height="256px" viewBox="0 0 256 256" version="1.1" xmlns="http://www.w3.org/2000/svg" xmlns:xlink="http://www.w3.org/1999/xlink">
    <!-- Generator: Sketch 61 (89581) - https://sketch.com -->
    <title>featureIllustration-1</title>
    <desc>Created with Sketch.</desc>
    <defs>
        <linearGradient x1="90.6857796%" y1="0%" x2="9.31422043%" y2="100%" id="linearGradient-1">
            <stop stop-color="#72BDDA" offset="0%"></stop>
            <stop stop-color="#E36AE5" offset="20.6239443%"></stop>
            <stop stop-color="#697CB5" offset="52.7528505%"></stop>
            <stop stop-color="#37497C" offset="79.8168285%"></stop>
            <stop stop-color="#780071" offset="99.4906039%"></stop>
        </linearGradient>
        <path d="M142,33.5 C149.902759,33.5 156.328899,39.8221564 156.49664,47.6846885 L156.5,48 L156.5,112.717285 C156.5,113.545712 155.828427,114.217285 155,114.217285 C154.220304,114.217285 153.579551,113.622397 153.506867,112.861745 L153.5,112.717285 L153.5,48 C153.5,41.7464373 148.508478,36.6587069 142.292268,36.5036415 L142,36.5 L58,36.5 C51.7464373,36.5 46.6587069,41.4915217 46.5036415,47.7077325 L46.5,48 L46.5,213 C46.5,219.253563 51.4915217,224.341293 57.7077325,224.496358 L58,224.5 L142,224.5 C148.18348,224.5 153.227111,219.61973 153.489292,213.500794 L149,213.5 C145.962434,213.5 143.5,211.037566 143.5,208 L143.5,208 L143.5,158 C143.5,154.962434 145.962434,152.5 149,152.5 L149,152.5 L152.5,152.5 L152.5,131.5 C152.5,115.483742 165.483742,102.5 181.5,102.5 C197.356095,102.5 210.240022,115.225366 210.496115,131.020432 L210.5,131.5 L210.5,152.5 L213,152.5 C215.963479,152.5 218.379539,154.84378 218.495633,157.778793 L218.5,158 L218.5,208 C218.5,211.037566 216.037566,213.5 213,213.5 L213,213.5 L156.491517,213.5007 C156.231183,221.172479 150.011117,227.332456 142.315311,227.49664 L142,227.5 L58,227.5 C50.0972412,227.5 43.6711012,221.177844 43.5033605,213.315311 L43.5,213 L43.5,48 C43.5,40.0972412 49.8221564,33.6711012 57.6846885,33.5033605 L58,33.5 L142,33.5 Z M213,155.5 L149,155.5 C147.619288,155.5 146.5,156.619288 146.5,158 L146.5,158 L146.5,208 C146.5,209.380712 147.619288,210.5 149,210.5 L149,210.5 L213,210.5 C214.380712,210.5 215.5,209.380712 215.5,208 L215.5,208 L215.5,158 C215.5,156.619288 214.380712,155.5 213,155.5 L213,155.5 Z M181,167.5 C186.246705,167.5 190.5,171.753295 190.5,177 C190.5,180.514097 188.574046,183.670506 185.59485,185.31707 L185.59485,185.31707 L185.5,185.367 L185.499885,198.5 L176.5,198.5 L176.5,185.367 L176.406151,185.317624 C173.509179,183.71696 171.607835,180.68872 171.504441,177.292023 L171.504441,177.292023 L171.5,177 C171.5,171.753295 175.753295,167.5 181,167.5 Z M181,170.5 C177.410149,170.5 174.5,173.410149 174.5,177 C174.5,179.672384 176.127425,182.042264 178.562846,183.028086 L178.562846,183.028086 L179.500032,183.407445 L179.499,195.5 L182.5,195.5 L182.501045,183.407156 L183.437963,183.027758 C185.87296,182.041724 187.5,179.672069 187.5,177 C187.5,173.410149 184.589851,170.5 181,170.5 Z M150,74.5 C150.779696,74.5 151.420449,75.0948881 151.493133,75.85554 L151.5,76 L151.5,112.830322 C151.5,113.658749 150.828427,114.330322 150,114.330322 C149.220304,114.330322 148.579551,113.735434 148.506867,112.974782 L148.5,112.830322 L148.5,94 L51.5,94 L51.5,179.499273 L135.875,179.5 C136.654696,179.5 137.295449,180.094888 137.368133,180.85554 L137.375,181 C137.375,181.779696 136.780112,182.420449 136.01946,182.493133 L135.875,182.5 L50,182.5 C49.2203039,182.5 48.5795513,181.905112 48.5068666,181.14446 L48.5,181 L48.5,76 C48.5,75.2203039 49.0948881,74.5795513 49.85554,74.5068666 L50,74.5 L150,74.5 Z M116.363636,107.5 C124.551666,107.5 131.5,114.95421 131.5,123.20857 C131.5,134.126156 124.78099,143.38171 112.229732,153.454057 L112.229732,153.454057 L111.847142,153.760015 C110.56869,154.778842 109.252541,155.792275 107.713884,156.948368 L107.713884,156.948368 L106.264025,158.031367 L102.053698,161.150786 L100.906093,162.013588 C100.370293,162.419713 99.6297073,162.419713 99.0939074,162.013588 C99.8650796,162.59812 91.1083204,156.119273 88.0435664,153.704151 L88.0435664,153.704151 L87.2600434,153.078072 C75.0192367,143.2029 68.5,134.077388 68.5,123.20857 C68.5,114.95421 75.4483337,107.5 83.6363636,107.5 C90.3282265,107.5 96.2164481,112.768149 99.6495058,118.681935 L99.6495058,118.681935 L99.998,119.29 L100.326819,118.700305 C103.588739,112.894251 109.648899,107.5 116.363636,107.5 Z M116.363636,110.5 C111.021938,110.5 105.727007,115.213107 102.942313,120.169725 C102.270441,121.365622 101.739981,122.369328 101.352257,123.176997 C100.803295,124.320542 99.1709666,124.308786 98.6385332,123.157453 C98.2748212,122.370962 97.7463576,121.379035 97.0549953,120.188094 L97.0549953,120.188094 L96.8790785,119.889986 C93.9052448,114.931524 88.849894,110.5 83.6363636,110.5 C77.1541339,110.5 71.5,116.565785 71.5,123.20857 C71.5,133.060884 77.7238435,141.630768 89.6447958,151.145234 L89.6447958,151.145234 L89.8625802,151.318047 C91.4703964,152.587322 94.7893185,155.079473 97.3789326,157.010123 L97.3789326,157.010123 L99.987,158.949 L104.967253,155.256775 C106.582822,154.052237 107.938787,153.02039 109.217354,152.015436 L109.217354,152.015436 L110.352086,151.114303 C122.254952,141.562289 128.5,132.959626 128.5,123.20857 C128.5,116.565785 122.845866,110.5 116.363636,110.5 Z M181.5,105.5 C167.284191,105.5 155.733084,116.908949 155.503483,131.070042 L155.5,131.5 L155.5,152.5 L207.5,152.5 L207.5,131.5 C207.5,117.140597 195.859403,105.5 181.5,105.5 Z M148.5,77.4992727 L51.5,77.4992727 L51.5,91 L148.5,91 L148.5,77.4992727 Z M112,41 C113.656854,41 115,42.3431458 115,44 C115,45.6568542 113.656854,47 112,47 L112,47 L88,47 C86.3431458,47 85,45.6568542 85,44 C85,42.3431458 86.3431458,41 88,41 L88,41 Z M112,43 L88,43 C87.4477153,43 87,43.4477153 87,44 C87,44.5522847 87.4477153,45 88,45 L88,45 L112,45 C112.552285,45 113,44.5522847 113,44 C113,43.4477153 112.552285,43 112,43 L112,43 Z" id="path-2"></path>
        <filter x="-1.1%" y="-1.0%" width="102.3%" height="102.1%" filterUnits="objectBoundingBox" id="filter-3">
            <feGaussianBlur stdDeviation="2" in="SourceAlpha" result="shadowBlurInner1"></feGaussianBlur>
            <feOffset dx="0" dy="0" in="shadowBlurInner1" result="shadowOffsetInner1"></feOffset>
            <feComposite in="shadowOffsetInner1" in2="SourceAlpha" operator="arithmetic" k2="-1" k3="1" result="shadowInnerInner1"></feComposite>
            <feColorMatrix values="0 0 0 0 1   0 0 0 0 1   0 0 0 0 1  0 0 0 0.239783654 0" type="matrix" in="shadowInnerInner1"></feColorMatrix>
        </filter>
    </defs>
    <g id="featureIllustration-1" stroke="none" stroke-width="1" fill="none" fill-rule="evenodd">
        <g id="Fill" fill-rule="nonzero">
            <use fill="url(#linearGradient-1)" xlink:href="#path-2"></use>
            <use fill="black" fill-opacity="1" filter="url(#filter-3)" xlink:href="#path-2"></use>
        </g>
    </g>
</svg>