<?xml version="1.0" encoding="UTF-8"?>
<svg width="256px" height="256px" viewBox="0 0 256 256" version="1.1" xmlns="http://www.w3.org/2000/svg" xmlns:xlink="http://www.w3.org/1999/xlink">
    <!-- Generator: Sketch 61 (89581) - https://sketch.com -->
    <title>featureIllustration-2</title>
    <desc>Created with Sketch.</desc>
    <defs>
        <linearGradient x1="100%" y1="2.47493635%" x2="0%" y2="97.5250637%" id="linearGradient-1">
            <stop stop-color="#72BDDA" offset="0%"></stop>
            <stop stop-color="#E36AE5" offset="20.6239443%"></stop>
            <stop stop-color="#697CB5" offset="52.7528505%"></stop>
            <stop stop-color="#37497C" offset="79.8168285%"></stop>
            <stop stop-color="#780071" offset="99.4906039%"></stop>
        </linearGradient>
        <path d="M171.32,95.56 C188.021091,95.56 201.56,109.098909 201.56,125.8 C201.56,138.797378 193.360157,149.879581 181.851421,154.155658 C204.872752,158.771042 222.279457,178.938137 222.673184,203.244299 L222.68,204.086452 L222.68,219.88 L219.8,219.88 L219.8,204.086452 C219.8,177.550827 198.309365,156.04 171.8,156.04 C145.555729,156.04 124.230315,177.122761 123.806431,203.291907 L123.8,204.086452 L123.8,219.88 L120.92,219.88 L120.92,204.086452 C120.92,195.755841 122.91845,187.892372 126.461693,180.950165 C118.075557,165.817729 102.109161,156.204103 84.44,156.204103 C58.1949256,156.204103 36.8702985,177.233072 36.4464305,203.33369 L36.44,204.126154 L36.44,219.88 L33.56,219.88 L33.56,204.126154 C33.56,179.739714 50.768821,159.367132 73.7220372,154.453267 C61.9638966,150.272157 53.546383,139.058914 53.546383,125.882051 C53.546383,109.135136 67.1429555,95.56 83.9140426,95.56 C100.68513,95.56 114.281702,109.135136 114.281702,125.882051 C114.281702,138.918243 106.042954,150.032516 94.4813361,154.317814 C108.499512,157.124917 120.706443,165.721255 128.089442,178.006807 C135.221218,166.056076 147.107698,157.275208 161.134875,154.280605 C149.444475,150.100787 141.08,138.927207 141.08,125.8 C141.08,109.098909 154.618909,95.56 171.32,95.56 Z M83.9140426,98.44 C68.7325192,98.44 56.426383,110.726734 56.426383,125.882051 C56.426383,141.037369 68.7325192,153.324103 83.9140426,153.324103 C99.0955659,153.324103 111.401702,141.037369 111.401702,125.882051 C111.401702,110.726734 99.0955659,98.44 83.9140426,98.44 Z M171.32,98.44 C156.209489,98.44 143.96,110.689489 143.96,125.8 C143.96,140.910511 156.209489,153.16 171.32,153.16 C186.430511,153.16 198.68,140.910511 198.68,125.8 C198.68,110.689489 186.430511,98.44 171.32,98.44 Z M121.072464,35.5 C133.460013,35.5 143.5,45.5747516 143.5,58 C143.5,65.0961114 140.201789,71.6473986 134.691015,75.8783044 C134.033915,76.3827945 133.092259,76.2590792 132.587769,75.6019785 C132.083279,74.9448779 132.206994,74.0032225 132.864095,73.4987325 C137.642552,69.8300642 140.5,64.1542712 140.5,58 C140.5,47.3438709 131.984937,38.6859606 121.414162,38.5029557 L121.072464,38.5 L86.9275362,38.5 C76.1991671,38.5 67.5,47.2292889 67.5,58 C67.5,68.6561291 76.015063,77.3140394 86.5858385,77.4970443 L86.9275362,77.5 L104.991735,77.5 C105.820162,77.5 106.491735,78.1715729 106.491735,79 C106.491735,79.7796961 105.896847,80.4204487 105.136195,80.4931334 L104.991735,80.5 L86.9275362,80.5 C74.5399871,80.5 64.5,70.4252484 64.5,58 C64.5,45.6990041 74.3401914,35.7017301 86.5566217,35.5030147 L86.9275362,35.5 L121.072464,35.5 Z M171.072464,35.5 C183.460013,35.5 193.5,45.5747516 193.5,58 C193.5,70.3009959 183.659809,80.2982699 171.443378,80.4969853 L171.072464,80.5 L136.927536,80.5 C124.539987,80.5 114.5,70.4252484 114.5,58 C114.5,51.2198114 117.509487,44.929168 122.609597,40.6810904 C123.246135,40.1508926 124.191962,40.2370992 124.72216,40.8736381 C125.252358,41.510177 125.166151,42.456004 124.529613,42.9862018 C120.107099,46.6698833 117.5,52.1194274 117.5,58 C117.5,68.6561291 126.015063,77.3140394 136.585838,77.4970443 L136.927536,77.5 L171.072464,77.5 C181.800833,77.5 190.5,68.7707111 190.5,58 C190.5,47.3438709 181.984937,38.6859606 171.414162,38.5029557 L171.072464,38.5 L153.262115,38.5 C152.433688,38.5 151.762115,37.8284271 151.762115,37 C151.762115,36.2203039 152.357003,35.5795513 153.117655,35.5068666 L153.262115,35.5 L171.072464,35.5 Z" id="path-2"></path>
        <filter x="-1.1%" y="-1.1%" width="102.1%" height="102.2%" filterUnits="objectBoundingBox" id="filter-3">
            <feGaussianBlur stdDeviation="2" in="SourceAlpha" result="shadowBlurInner1"></feGaussianBlur>
            <feOffset dx="0" dy="0" in="shadowBlurInner1" result="shadowOffsetInner1"></feOffset>
            <feComposite in="shadowOffsetInner1" in2="SourceAlpha" operator="arithmetic" k2="-1" k3="1" result="shadowInnerInner1"></feComposite>
            <feColorMatrix values="0 0 0 0 1   0 0 0 0 1   0 0 0 0 1  0 0 0 0.239783654 0" type="matrix" in="shadowInnerInner1"></feColorMatrix>
        </filter>
    </defs>
    <g id="featureIllustration-2" stroke="none" stroke-width="1" fill="none" fill-rule="evenodd">
        <g id="Fill" fill-rule="nonzero">
            <use fill="url(#linearGradient-1)" xlink:href="#path-2"></use>
            <use fill="black" fill-opacity="1" filter="url(#filter-3)" xlink:href="#path-2"></use>
        </g>
    </g>
</svg>