<?xml version="1.0" encoding="UTF-8"?>
<svg width="256px" height="256px" viewBox="0 0 256 256" version="1.1" xmlns="http://www.w3.org/2000/svg" xmlns:xlink="http://www.w3.org/1999/xlink">
    <!-- Generator: Sketch 61 (89581) - https://sketch.com -->
    <title>featureIllustration-6</title>
    <desc>Created with Sketch.</desc>
    <defs>
        <linearGradient x1="87.0509618%" y1="0%" x2="12.9490382%" y2="100%" id="linearGradient-1">
            <stop stop-color="#72BDDA" offset="0%"></stop>
            <stop stop-color="#E36AE5" offset="20.6239443%"></stop>
            <stop stop-color="#697CB5" offset="52.7528505%"></stop>
            <stop stop-color="#37497C" offset="79.8168285%"></stop>
            <stop stop-color="#780071" offset="99.4906039%"></stop>
        </linearGradient>
        <path d="M171.601695,38.5 C193.693085,38.5 211.601695,56.40861 211.601695,78.5 C211.601695,100.370476 194.049466,118.14141 172.263168,118.494641 L171.601695,118.5 L125.499695,118.5 L125.499,141.014 L125.7098,140.844287 C127.524047,139.420713 129.777987,138.572656 132.185174,138.504456 L132.185174,138.504456 L132.5,138.5 C136.917488,138.5 140.768191,141.116991 142.512,144.936 L142.512,144.936 L142.657025,144.785855 C144.610395,142.799745 147.287367,141.58573 150.188346,141.504367 L150.188346,141.504367 L150.5,141.5 C155.417964,141.5 159.582127,144.727408 160.990045,149.180137 L160.990045,149.180137 L161.056,149.399 L161.24668,149.228575 C163.133216,147.574099 165.568666,146.578587 168.185174,146.504456 L168.185174,146.504456 L168.5,146.5 C174.575132,146.5 179.5,151.424868 179.5,157.5 L179.5,157.5 L179.5,196.505371 C179.5,199.892781 179.302341,203.862234 178.777752,207.842652 C177.984085,213.86475 176.592433,218.645772 174.378362,221.662819 C169.417105,228.42337 161.547272,232.5 153,232.5 L153,232.5 L126,232.5 C120.01317,232.5 115.659673,230.835361 111.854798,227.17861 C108.948794,224.385736 106.609771,220.920425 102.553421,213.703811 L102.553421,213.703811 L101.502233,211.819723 L74.1995379,160.588314 L78.9884721,157.933765 C87.5138351,153.208079 98.1540137,155.929432 103.415593,163.94922 L103.415593,163.94922 L103.499,164.08 L103.499695,118.5 L84.6016949,118.5 C62.5103049,118.5 44.6016949,100.59139 44.6016949,78.5 C44.6016949,56.6295239 62.1539236,38.8585905 83.9402218,38.5053589 L84.6016949,38.5 L171.601695,38.5 Z M114.5,107.5 C110.081722,107.5 106.5,111.081722 106.5,115.500022 L106.5,115.500022 L106.499123,175.595129 L101.514056,166.59968 C97.3638846,159.112574 87.9300074,156.407453 80.442901,160.557624 L80.442901,160.557624 L78.234,161.781 L104.137915,210.387043 C112.67067,225.780541 116.384361,229.424585 125.703826,229.5 L125.703826,229.5 L153,229.5 C160.581686,229.5 167.557781,225.886333 171.959747,219.887909 C173.797893,217.383125 175.070775,213.010136 175.803472,207.450664 C176.308468,203.618905 176.5,199.7725 176.5,196.505371 L176.5,196.505371 L176.5,157.5 C176.5,153.081722 172.918278,149.5 168.5,149.5 C165.43815,149.5 162.687578,151.234635 161.341004,153.924796 L161.341004,153.924796 L158.496808,159.60688 L158.5,152.5 C158.5,148.081722 154.918278,144.5 150.5,144.5 C147.393477,144.5 144.609896,146.285886 143.287276,149.036524 L143.287276,149.036524 L141.045451,153.698821 L140.445554,148.560444 C139.977863,144.554466 136.568911,141.5 132.5,141.5 C129.43815,141.5 126.687578,143.234635 125.341004,145.924796 L125.341004,145.924796 L122.499589,151.601323 L122.5,115.5 C122.5,111.081722 118.918278,107.5 114.5,107.5 Z M171.601695,41.5 L84.6016949,41.5 C64.1671592,41.5 47.6016949,58.0654643 47.6016949,78.5 C47.6016949,98.7301904 63.8375064,115.168304 83.9898323,115.495043 L84.6016949,115.5 L103.5,115.5 C103.5,109.521298 108.269764,104.656635 114.211593,104.503707 L114.211593,104.503707 L114.5,104.5 C120.575132,104.5 125.5,109.424868 125.5,115.500017 L125.5,115.500017 L171.601695,115.5 C192.036231,115.5 208.601695,98.9345357 208.601695,78.5 C208.601695,58.2698096 192.365883,41.8316962 172.213558,41.5049569 L171.601695,41.5 Z M114,95.5 C123.126624,95.5 131.077975,101.516769 133.647502,110.132262 C133.88427,110.926133 133.432649,111.761632 132.638777,111.9984 C131.844905,112.235169 131.009406,111.783547 130.772638,110.989675 C128.579744,103.637015 121.791017,98.5 114,98.5 C106.34303,98.5 99.6433234,103.462479 97.3363479,110.637925 C97.0827835,111.426593 96.2378876,111.860379 95.44922,111.606815 C94.6605523,111.353251 94.2267654,110.508355 94.4803297,109.719687 C97.1833438,101.312433 105.030549,95.5 114,95.5 Z M98.052,62.584 L98.052,84.012 C98.052,87.356 97.348,89.908 96.028,91.668 C94.488,93.604 92.024,94.616 88.636,94.616 C85.82,94.616 83.62,93.824 82.124,92.284 C80.452,90.656 79.66,88.324 79.66,85.288 L79.66,85.288 L79.66,84.1 L82.344,84.1 L82.344,85.244 C82.344,89.82 84.456,92.152 88.68,92.152 C91.056,92.152 92.772,91.448 93.828,90.084 C94.796,88.764 95.324,86.74 95.324,83.968 L95.324,83.968 L95.324,62.584 L98.052,62.584 Z M118.072,61.968 C122.692,61.968 126.344,63.552 129.072,66.72 C131.624,69.712 132.9,73.54 132.9,78.292 C132.9,83.044 131.624,86.916 129.072,89.908 C126.344,93.032 122.692,94.616 118.028,94.616 C113.364,94.616 109.668,93.032 106.984,89.864 C104.432,86.872 103.156,83 103.156,78.292 C103.156,73.584 104.432,69.712 106.984,66.72 C109.712,63.552 113.408,61.968 118.072,61.968 Z M141.084,62.584 L141.084,94 L138.4,94 L138.4,62.584 L141.084,62.584 Z M150.94,62.584 L169.948,89.82 L170.08,89.82 L170.08,62.584 L172.808,62.584 L172.808,94 L169.816,94 L150.72,66.544 L150.588,66.544 L150.588,94 L147.904,94 L147.904,62.584 L150.94,62.584 Z M118.072,64.432 C114.244,64.432 111.208,65.752 109.008,68.392 C106.896,70.944 105.84,74.244 105.84,78.292 C105.84,82.384 106.852,85.684 108.964,88.192 C111.164,90.832 114.2,92.152 118.028,92.152 C121.856,92.152 124.848,90.832 127.048,88.236 C129.16,85.728 130.216,82.428 130.216,78.292 C130.216,74.156 129.16,70.812 127.048,68.348 C124.848,65.708 121.856,64.432 118.072,64.432 Z" id="path-2"></path>
        <filter x="0.0%" y="0.0%" width="100.0%" height="100.0%" filterUnits="objectBoundingBox" id="filter-3">
            <feOffset dx="0" dy="0" in="SourceAlpha" result="shadowOffsetOuter1"></feOffset>
            <feColorMatrix values="0 0 0 0 1   0 0 0 0 0.510956555   0 0 0 0 0.963824037  0 0 0 1 0" type="matrix" in="shadowOffsetOuter1"></feColorMatrix>
        </filter>
        <filter x="-1.2%" y="-1.0%" width="102.4%" height="102.1%" filterUnits="objectBoundingBox" id="filter-4">
            <feGaussianBlur stdDeviation="2" in="SourceAlpha" result="shadowBlurInner1"></feGaussianBlur>
            <feOffset dx="0" dy="0" in="shadowBlurInner1" result="shadowOffsetInner1"></feOffset>
            <feComposite in="shadowOffsetInner1" in2="SourceAlpha" operator="arithmetic" k2="-1" k3="1" result="shadowInnerInner1"></feComposite>
            <feColorMatrix values="0 0 0 0 1   0 0 0 0 1   0 0 0 0 1  0 0 0 0.239783654 0" type="matrix" in="shadowInnerInner1"></feColorMatrix>
        </filter>
    </defs>
    <g id="featureIllustration-6" stroke="none" stroke-width="1" fill="none" fill-rule="evenodd">
        <g id="Fill" fill-rule="nonzero">
            <use fill="black" fill-opacity="1" filter="url(#filter-3)" xlink:href="#path-2"></use>
            <use fill="url(#linearGradient-1)" xlink:href="#path-2"></use>
            <use fill="black" fill-opacity="1" filter="url(#filter-4)" xlink:href="#path-2"></use>
        </g>
    </g>
</svg>