<?xml version="1.0" encoding="UTF-8"?>
<svg width="256px" height="256px" viewBox="0 0 256 256" version="1.1" xmlns="http://www.w3.org/2000/svg" xmlns:xlink="http://www.w3.org/1999/xlink">
    <!-- Generator: Sketch 61 (89581) - https://sketch.com -->
    <title>featureIllustration-5</title>
    <desc>Created with Sketch.</desc>
    <defs>
        <linearGradient x1="95.3238088%" y1="0%" x2="4.6761912%" y2="100%" id="linearGradient-1">
            <stop stop-color="#72BDDA" offset="0%"></stop>
            <stop stop-color="#E36AE5" offset="20.6239443%"></stop>
            <stop stop-color="#697CB5" offset="52.7528505%"></stop>
            <stop stop-color="#37497C" offset="79.8168285%"></stop>
            <stop stop-color="#780071" offset="99.4906039%"></stop>
        </linearGradient>
        <path d="M139.644657,45.2669673 C147.913448,37.2620068 161.043443,37.2733544 169.135044,45.3649558 C176.07473,52.304642 177.071006,62.9503054 172.164211,71.0569301 L200.188235,71.0560127 C203.011082,71.0560127 205.307577,73.3031555 205.420638,76.1119717 L205.425,76.3291139 L205.425,106.151899 C205.425,108.988411 203.199076,111.306466 200.404311,111.420596 L200.188235,111.425 L199.424,111.424681 L199.425,207.2 C199.425,210.013546 197.201191,212.307693 194.415374,212.420642 L194.2,212.425 L51.8,212.425 C48.9143122,212.425 46.575,210.085688 46.575,207.2 L46.575,207.2 L46.574,111.424681 L45.8117647,111.425 C42.9889178,111.425 40.6924229,109.177857 40.5793624,106.369041 L40.575,106.151899 L40.575,76.3291139 C40.575,73.4926021 42.8009237,71.1745464 45.5956887,71.0604165 L45.8117647,71.0560127 L73.8357885,71.0569301 C68.9289937,62.9503054 69.9252697,52.304642 76.8649558,45.3649558 C84.9565572,37.2733544 98.0865517,37.2620068 106.355343,45.2669673 L106.60694,45.5145211 C110.352677,49.2602585 114.346509,57.7460134 118.661399,71.0556489 L127.338601,71.0556489 C131.653491,57.7460134 135.647323,49.2602585 139.39306,45.5145211 L139.39306,45.5145211 Z M122.074,111.424681 L49.424,111.424681 L49.425,207.2 C49.425,208.40237 50.3184873,209.396055 51.4777266,209.553319 L51.6373929,209.569521 L51.8,209.575 L122.074,209.574681 L122.074,111.424681 Z M196.574,111.424681 L124.924,111.424681 L124.924,209.574681 L194.2,209.575 C195.457023,209.575 196.485959,208.598441 196.569521,207.362607 L196.575,207.2 L196.574,111.424681 Z M75.56613,73.5064821 L75.567446,73.9060127 L45.8117647,73.9060127 C44.5514304,73.9060127 43.5147255,74.8995856 43.4305215,76.1628679 L43.425,76.3291139 L43.425,106.151899 C43.425,107.437266 44.409191,108.484396 45.6487014,108.569425 L45.8117647,108.575 L46.574,108.574681 L46.575,107.575 L122.074,107.574681 L122.074,92.8216812 L120.524191,92.4115432 C96.6625247,86.0297575 82.2349782,80.327397 77.0145211,75.1069399 C76.4999049,74.5923237 76.0171026,74.0580127 75.56613,73.5064821 Z M200.188235,73.9060127 L170.098382,73.9067314 C169.745612,74.3173501 169.374642,74.7177765 168.985479,75.1069399 C163.765022,80.327397 149.337475,86.0297575 125.475809,92.4115432 L125.475809,92.4115432 L124.924,92.5566812 L124.924,107.574681 L199.425,107.575 L199.424,108.574681 L200.188235,108.575 C201.44857,108.575 202.485274,107.581427 202.569478,106.318145 L202.575,106.151899 L202.575,76.3291139 C202.575,75.043747 201.590809,73.9966171 200.351299,73.9115878 L200.188235,73.9060127 Z M78.8802102,47.3802102 C71.8239315,54.4364888 71.8860273,65.9479375 79.0297754,73.0916856 L79.1792371,73.2384138 C83.9035428,77.7933262 97.2848503,83.1322345 119.12335,89.0813002 L121.120648,89.620648 L120.38553,86.9069435 C114.451216,65.2590644 109.128694,52.0667834 104.591686,47.5297754 C97.4479375,40.3860273 85.9364888,40.3239315 78.8802102,47.3802102 Z M167.11979,47.3802102 C160.063511,40.3239315 148.552063,40.3860273 141.408314,47.5297754 C136.871306,52.0667834 131.548784,65.2590644 125.61447,86.9069435 L125.61447,86.9069435 L124.924,89.4536812 L124.924,89.6076812 L126.87665,89.0813002 C148.475166,83.1976089 161.801341,77.9107385 166.661881,73.3888595 L166.820763,73.2384138 L166.970225,73.0916856 C174.113973,65.9479375 174.176068,54.4364888 167.11979,47.3802102 Z M122.074,73.9056812 L119.567372,73.9059034 C120.391253,76.5479766 121.226779,79.3625093 122.074443,82.3500674 L122.074,73.9056812 Z M126.432628,73.9059034 L124.924,73.9056812 L124.92445,78.8905543 C125.43151,77.1658011 125.9342,75.5042926 126.432628,73.9059034 Z" id="path-2"></path>
        <filter x="-0.0%" y="0.0%" width="100.0%" height="100.0%" filterUnits="objectBoundingBox" id="filter-3">
            <feOffset dx="0" dy="0" in="SourceAlpha" result="shadowOffsetOuter1"></feOffset>
            <feColorMatrix values="0 0 0 0 1   0 0 0 0 0.510956555   0 0 0 0 0.963824037  0 0 0 1 0" type="matrix" in="shadowOffsetOuter1"></feColorMatrix>
        </filter>
        <filter x="-1.2%" y="-1.2%" width="102.4%" height="102.3%" filterUnits="objectBoundingBox" id="filter-4">
            <feGaussianBlur stdDeviation="2" in="SourceAlpha" result="shadowBlurInner1"></feGaussianBlur>
            <feOffset dx="0" dy="0" in="shadowBlurInner1" result="shadowOffsetInner1"></feOffset>
            <feComposite in="shadowOffsetInner1" in2="SourceAlpha" operator="arithmetic" k2="-1" k3="1" result="shadowInnerInner1"></feComposite>
            <feColorMatrix values="0 0 0 0 1   0 0 0 0 1   0 0 0 0 1  0 0 0 0.239783654 0" type="matrix" in="shadowInnerInner1"></feColorMatrix>
        </filter>
    </defs>
    <g id="featureIllustration-5" stroke="none" stroke-width="1" fill="none" fill-rule="evenodd">
        <g id="Fill" fill-rule="nonzero">
            <use fill="black" fill-opacity="1" filter="url(#filter-3)" xlink:href="#path-2"></use>
            <use fill="url(#linearGradient-1)" xlink:href="#path-2"></use>
            <use fill="black" fill-opacity="1" filter="url(#filter-4)" xlink:href="#path-2"></use>
        </g>
    </g>
</svg>